<svg width="52" height="115" viewBox="0 0 52 115" fill="none" xmlns="http://www.w3.org/2000/svg">
<g clip-path="url(#clip0_1_167)">
<path d="M51.3169 64.7208C51.2644 64.5375 47.957 59.6694 47.4845 59.3029C46.9857 58.9366 46.5133 58.3346 46.5133 58.3346C46.5133 58.3346 45.4896 52.9954 44.4921 49.0955C43.5209 45.1957 42.0509 40.6416 42.0509 40.6416C42.0509 40.6416 42.1034 30.8531 41.8672 30.1987C41.6309 29.5182 42.9696 25.3305 40.5809 22.975C40.266 22.6609 39.9247 22.3991 39.5834 22.1375C39.5834 22.1375 35.6985 20.8026 34.4648 20.4623C33.2049 20.1221 30.0286 18.1853 29.6874 17.7404C29.3462 17.2954 29.6874 14.4426 29.6874 14.4426L30.37 12.9769C30.37 12.9769 30.9999 13.1601 31.2886 12.9769C31.5774 12.7937 32.7586 10.0194 32.3124 9.62676C31.8661 9.23416 31.3937 9.23416 31.3937 9.23416C31.3937 9.23416 32.0237 5.20354 30.7637 3.21439C29.5037 1.19907 25.6713 0.570923 25.6713 0.570923C25.6713 0.570923 21.8389 1.19907 20.5789 3.18821C19.319 5.17736 19.9489 9.20799 19.9489 9.20799C19.9489 9.20799 19.5027 9.20799 19.0302 9.60058C18.5839 9.99318 19.7652 12.7937 20.0539 12.9507C20.3426 13.1339 20.9726 12.9507 20.9726 12.9507L21.6551 14.4164C21.6551 14.4164 21.9964 17.2692 21.6551 17.7142C21.3139 18.1591 18.1115 20.0959 16.8778 20.4362C15.6178 20.7764 11.7591 22.1113 11.7591 22.1113C11.4179 22.3468 11.0766 22.6347 10.7617 22.9488C8.37296 25.3305 9.73794 29.5182 9.47543 30.1725C9.23919 30.8531 9.2917 40.6156 9.2917 40.6156C9.2917 40.6156 7.82172 45.1696 6.85051 49.0694C5.87928 52.9692 4.8293 58.3084 4.8293 58.3084C4.8293 58.3084 4.33056 58.9104 3.85808 59.2769C3.38558 59.6432 0.0781667 64.5113 0.025668 64.6946C-0.0268308 64.8778 -0.0268308 65.5322 0.708151 65.4274C1.44314 65.3228 2.83435 63.8571 2.83435 63.8571C2.83435 63.8571 2.65061 66.5267 2.83435 68.5944C3.0181 70.662 3.93682 71.3164 4.22557 71.6827C4.54056 72.0492 5.32804 71.866 5.87928 71.5519C6.43051 71.2379 6.798 70.2171 6.798 70.2171C6.798 70.2171 7.113 70.4003 7.58548 70.2171C8.08422 70.0339 8.37296 67.0502 8.68795 65.2442C9.00295 63.4122 8.68795 60.0096 8.68795 60.0096C8.68795 60.0096 10.8142 55.22 12.1003 52.9692C13.3866 50.7183 14.3053 44.2798 14.5415 43.4945C14.6203 43.2328 14.7778 42.3952 14.9353 41.2175L15.5915 48.5721L14.8829 50.2733C14.7515 50.6397 14.6203 51.137 14.4366 51.7652C13.7803 54.2255 14.3053 65.0087 14.4366 67.3642C14.5678 69.6937 16.5365 76.3678 17.009 78.8803C17.4815 81.393 17.7965 82.6492 17.6915 84.586C17.5602 86.4966 16.6941 87.0986 16.8253 90.5796C16.9565 94.0606 20.0277 104.844 20.1065 105.393C20.1589 105.943 20.2377 108.508 20.0539 108.979C19.8702 109.45 18.0065 112.094 17.7702 112.46C17.534 112.827 17.639 113.298 18.2427 113.533C18.8465 113.768 19.8702 114.187 20.5265 114.24C21.1826 114.292 21.9701 113.873 21.9701 113.873C21.9701 113.873 22.7577 114.946 23.5976 114.292C24.4376 113.638 24.0701 110.524 24.0701 110.524C24.0701 110.524 24.3589 108.901 24.6476 107.644C24.9363 106.388 23.8076 103.483 24.1226 97.6202C24.4376 91.8883 23.5713 86.7584 23.5713 86.7584C23.5713 86.7584 23.9389 85.5021 24.5426 82.8586C25.1463 80.2151 25.6976 65.8986 25.6976 65.8986V65.2442V65.8986C25.6976 65.8986 26.2488 80.2413 26.8525 82.8586C27.4562 85.5021 27.8237 86.7584 27.8237 86.7584C27.8237 86.7584 26.9575 91.8621 27.2725 97.6202C27.5875 103.457 26.485 106.362 26.7475 107.644C27.0362 108.901 27.325 110.524 27.325 110.524C27.325 110.524 26.9575 113.638 27.7975 114.292C28.6374 114.946 29.4249 113.873 29.4249 113.873C29.4249 113.873 30.2125 114.292 30.8686 114.24C31.5249 114.187 32.5486 113.768 33.1524 113.533C33.7561 113.298 33.861 112.827 33.6249 112.46C33.3886 112.094 31.5249 109.45 31.3412 108.979C31.1574 108.508 31.2099 105.917 31.2886 105.393C31.3412 104.844 34.4386 94.0606 34.5698 90.5796C34.701 87.0986 33.8086 86.4966 33.7036 84.586C33.5724 82.6754 33.9136 81.4192 34.3861 78.8803C34.8586 76.3678 36.8273 69.7198 36.9585 67.3642C37.0897 65.0348 37.6148 54.2255 36.9585 51.7652C36.7748 51.137 36.6436 50.6397 36.5123 50.2733L35.8036 48.5721L36.4598 41.2175C36.6173 42.3952 36.7748 43.2328 36.8536 43.4945C37.0897 44.2798 38.0085 50.7183 39.2948 52.9692C40.5809 55.22 42.7072 60.0096 42.7072 60.0096C42.7072 60.0096 42.3921 63.4122 42.7072 65.2442C43.0221 67.0764 43.3109 70.0339 43.8096 70.2171C44.3084 70.4003 44.5971 70.2171 44.5971 70.2171C44.5971 70.2171 44.9645 71.2379 45.5158 71.5519C46.067 71.866 46.8545 72.0492 47.1696 71.6827C47.4845 71.3164 48.377 70.662 48.5608 68.5944C48.7445 66.5267 48.5608 63.8571 48.5608 63.8571C48.5608 63.8571 49.952 65.3228 50.6869 65.4274C51.3695 65.5845 51.3695 64.904 51.3169 64.7208Z" fill="black"/>
</g>
<defs>
<clipPath id="clip0_1_167">
<rect width="51.3438" height="113.983" fill="white" transform="translate(0 0.570923)"/>
</clipPath>
</defs>
</svg>
