<svg width="21" height="115" viewBox="0 0 21 115" fill="none" xmlns="http://www.w3.org/2000/svg">
<g clip-path="url(#clip0_1_151)">
<path d="M20.3714 28.2204V17.6409C19.6157 15.8273 18.5578 14.0136 17.4998 12.2C15.6862 9.02613 14.7794 6.30568 11.001 3.43409C7.97824 1.92273 4.80438 0.713636 1.32825 0.5625C1.02597 1.16704 0.874836 2.07386 0.572564 3.28295C-0.636527 7.66591 0.421427 26.7091 0.572564 30.7898C0.7237 34.8704 4.19984 46.6591 5.10665 51.042C5.86233 55.425 6.46688 57.692 6.31574 61.017C6.01347 64.342 4.80438 63.8886 5.10665 70.0852C5.25779 76.1307 10.3964 96.6852 10.3964 97.7431C10.5476 98.65 10.5476 103.185 10.2453 104.09C9.94302 104.997 6.61802 109.532 6.16461 110.287C5.7112 110.891 6.01347 111.799 7.07142 112.253C8.12938 112.706 9.94302 113.462 11.1521 113.462C12.3612 113.462 13.7214 112.856 13.7214 112.856C13.7214 112.856 15.0816 114.822 16.593 113.613C18.1044 112.404 17.4998 106.963 17.4998 106.963C17.4998 106.963 17.9532 104.09 18.5578 101.824C19.0112 99.5568 17.1976 94.5693 17.651 84.1409C18.1044 73.7125 16.7442 64.9466 16.7442 64.9466C16.7442 64.9466 17.3487 62.6795 18.4066 58.1454C19.3135 53.4602 20.3714 28.2204 20.3714 28.2204Z" fill="black"/>
</g>
<defs>
<clipPath id="clip0_1_151">
<rect width="21" height="114" fill="white" transform="translate(0 0.5625)"/>
</clipPath>
</defs>
</svg>
