<svg width="35" height="115" viewBox="0 0 35 115" fill="none" xmlns="http://www.w3.org/2000/svg">
<g clip-path="url(#clip0_1_125)">
<path d="M34.1118 21.4712C33.5716 13.9054 31.9511 6.33947 26.3689 0.755127C25.6486 1.29555 24.7483 2.01611 24.208 2.55652C18.806 7.96073 21.8672 17.328 21.327 18.9493C20.7867 20.3904 20.9668 42.5476 20.9668 42.5476C20.9668 42.5476 17.5455 52.9957 15.3847 61.8226C13.2238 70.6495 10.8829 82.7189 10.8829 82.7189C10.8829 82.7189 9.80253 84.1599 8.72211 84.8806C7.64169 85.7812 0.258849 96.7698 0.0787803 97.13C-0.101289 97.4903 -0.101289 99.1116 1.51934 98.7514C3.13996 98.391 6.3812 95.1485 6.3812 95.1485C6.3812 95.1485 6.02106 101.273 6.3812 105.957C6.74135 110.641 8.90218 112.082 9.62245 112.982C10.3427 113.883 12.1434 113.343 13.4039 112.622C14.6645 111.902 15.3847 109.56 15.3847 109.56C15.3847 109.56 16.105 109.92 17.1853 109.56C18.2658 109.199 18.9861 102.354 19.7063 98.2109C20.4266 94.0677 19.7063 86.3217 19.7063 86.3217C19.7063 86.3217 24.5683 75.5132 27.4493 70.2892C30.3304 65.2453 32.3112 50.654 33.0315 48.8526C33.2115 47.4114 35.5525 32.0995 34.1118 21.4712Z" fill="black"/>
</g>
<defs>
<clipPath id="clip0_1_125">
<rect width="34.5781" height="113.98" fill="white" transform="translate(0 0.572632)"/>
</clipPath>
</defs>
</svg>
