<svg width="69" height="34" viewBox="0 0 69 34" fill="none" xmlns="http://www.w3.org/2000/svg">
<path d="M11.4141 14.3L16.8281 18.8L22.2422 14.3" stroke="#053412" stroke-width="0.75" stroke-miterlimit="10"/>
<path d="M40.25 7.53125H43.6719V19.25C43.6719 20.5625 43.4297 21.6328 42.9453 22.4609C42.4688 23.2812 41.8086 23.8828 40.9648 24.2656C40.1211 24.6406 39.1562 24.8281 38.0703 24.8281C36.9766 24.8281 36.0039 24.6406 35.1523 24.2656C34.3008 23.8828 33.6367 23.2812 33.1602 22.4609C32.6914 21.6328 32.457 20.5625 32.457 19.25V7.53125H35.8789V19.25C35.8789 19.9922 35.9609 20.5625 36.125 20.9609C36.2969 21.3594 36.543 21.6328 36.8633 21.7812C37.1914 21.9219 37.5938 21.9922 38.0703 21.9922C38.5547 21.9922 38.9531 21.9219 39.2656 21.7812C39.5859 21.6328 39.8281 21.3594 39.9922 20.9609C40.1641 20.5625 40.25 19.9922 40.25 19.25V7.53125ZM52.2148 10.5781L48.5469 24.5938H44.9258L50.2578 7.53125H52.5195L52.2148 10.5781ZM55.1094 24.5938L51.418 10.5781L51.0781 7.53125H53.375L58.7539 24.5938H55.1094ZM55.2383 18.2305V21.0781H47.5391V18.2305H55.2383Z" fill="#053412"/>
</svg>
