<svg width="40" height="115" viewBox="0 0 40 115" fill="none" xmlns="http://www.w3.org/2000/svg">
<g clip-path="url(#clip0_1_175)">
<path d="M20.0384 77.6393C31.1053 77.6393 40.0768 68.6678 40.0768 57.6009C40.0768 46.534 31.1053 37.5625 20.0384 37.5625C8.97149 37.5625 0 46.534 0 57.6009C0 68.6678 8.97149 77.6393 20.0384 77.6393Z" fill="black"/>
<path d="M18.5019 61.1325C18.5019 59.9041 18.6555 58.9828 18.8858 58.2918C19.1161 57.6008 19.5768 56.9099 20.191 56.2956C20.8052 55.6047 21.2658 54.9905 21.4962 54.5298C21.7265 54.0692 21.8033 53.6085 21.8033 53.1479C21.8033 51.6891 21.3426 50.9981 20.4213 50.9981C20.0374 50.9981 19.6535 51.2285 19.4232 51.6123C19.1161 51.9962 19.0393 52.5336 18.9626 53.2246H15.2773C15.2773 51.5356 15.738 50.2304 16.6593 49.3091C17.5806 48.3878 18.809 47.9271 20.4213 47.9271C22.0336 47.9271 23.262 48.3878 24.1833 49.2323C25.1046 50.1536 25.4885 51.382 25.4885 52.9943C25.4885 54.2995 24.951 55.6047 23.8762 56.9099L22.8013 58.1383C22.4175 58.5221 22.1871 58.9828 22.0336 59.4434C21.88 59.9041 21.8033 60.5183 21.8033 61.2093H18.5019V61.1325ZM18.1948 65.048C18.1948 64.4338 18.3484 63.9732 18.7322 63.5893C19.1161 63.2054 19.5768 63.0519 20.191 63.0519C20.8052 63.0519 21.2658 63.2054 21.6497 63.5893C22.0336 63.9732 22.1871 64.4338 22.1871 65.048C22.1871 65.5855 22.0336 66.1229 21.6497 66.5068C21.2658 66.8907 20.8052 67.0442 20.191 67.0442C19.5768 67.0442 19.1161 66.8907 18.7322 66.5068C18.3484 66.1229 18.1948 65.6622 18.1948 65.048Z" fill="white"/>
</g>
<defs>
<clipPath id="clip0_1_175">
<rect width="40" height="40" fill="white" transform="translate(0 37.5625)"/>
</clipPath>
</defs>
</svg>
