<svg width="40" height="115" viewBox="0 0 40 115" fill="none" xmlns="http://www.w3.org/2000/svg">
<g clip-path="url(#clip0_1_159)">
<path d="M39.689 59.3386C38.3634 58.1802 36.9599 58.1802 36.9599 58.1802C36.9599 58.1802 38.8313 46.2883 35.0886 40.4196C31.4238 34.5509 19.9619 32.6976 19.9619 32.6976C19.9619 32.6976 8.57784 34.5509 4.91312 40.4196C1.17044 46.2883 3.04178 58.1802 3.04178 58.1802C3.04178 58.1802 1.71624 58.1802 0.312732 59.3386C-1.0128 60.4969 2.49597 68.7594 3.35367 69.2227C4.21137 69.7633 6.08272 69.2227 6.08272 69.2227C6.08272 69.2227 9.98135 83.4313 20.0398 82.3502C30.0203 83.4313 33.997 69.2227 33.997 69.2227C33.997 69.2227 35.8683 69.7633 36.726 69.2227C37.5057 68.7594 41.0145 60.5741 39.689 59.3386Z" fill="black"/>
</g>
<defs>
<clipPath id="clip0_1_159">
<rect width="40" height="49.7297" fill="white" transform="translate(0 32.6976)"/>
</clipPath>
</defs>
</svg>
