<svg width="67" height="115" viewBox="0 0 67 115" fill="none" xmlns="http://www.w3.org/2000/svg">
<g clip-path="url(#clip0_1_89)">
<path d="M20.0109 68.8956C20.0109 68.8956 16.8225 73.9425 13.4409 76.3725C10.0593 78.8025 6.38788 80.0175 3.39274 80.0175C0.397611 80.0175 -0.0854746 77.6811 0.0111427 77.2138C0.10776 76.7465 14.3105 60.9514 14.3105 60.9514L20.0109 68.8956Z" fill="black"/>
<path d="M24.551 88.5226C24.551 88.5226 22.3287 103.57 22.5219 106.935C22.7153 110.299 23.4881 113.009 24.551 113.757C25.6138 114.505 27.7394 114.785 28.1259 113.757C28.6089 112.729 32.5703 89.7376 32.5703 89.7376C32.5703 89.7376 30.5412 86.373 27.546 87.4947C24.551 88.5226 24.551 88.5226 24.551 88.5226Z" fill="black"/>
<path d="M34.7938 89.7378C34.7938 89.7378 35.7598 104.972 35.8565 107.215C36.0496 109.458 36.0496 111.327 36.9192 112.542C37.8854 113.757 42.2331 114.692 42.7163 112.542C43.1994 110.393 42.7163 89.0834 42.7163 89.0834C42.7163 89.0834 40.5907 86.5601 38.8516 87.2142C37.1125 87.8684 34.7938 89.7378 34.7938 89.7378Z" fill="black"/>
<path d="M44.2621 88.6161C44.2621 88.6161 45.325 102.355 45.5182 105.065C45.7113 107.776 45.325 109.738 46.4844 110.673C47.5471 111.608 49.9626 113.57 51.3151 110.673C52.6679 107.776 51.3151 90.2984 51.3151 90.2984C51.3151 90.2984 51.605 87.2142 49.7692 87.1207C47.8369 86.9338 44.2621 88.6161 44.2621 88.6161Z" fill="black"/>
<path d="M50.8309 85.6253C50.8309 85.6253 53.3429 96.093 54.0193 98.2426C54.6956 100.392 55.2753 100.392 56.3381 100.859C57.401 101.327 59.5264 99.7378 59.5264 97.3078C59.5264 94.878 57.0144 82.354 57.0144 82.354L50.8309 85.6253Z" fill="black"/>
<path d="M24.261 91.0461L25.7103 70.4846C25.7103 70.4846 23.1983 68.6152 21.6524 68.7087C20.1065 68.8023 20.1065 68.8956 20.1065 68.8956L14.4061 60.9514L29.6716 45.9041C29.6716 45.9041 30.7344 0.575317 31.2176 0.575317C31.7006 0.575317 65.9998 0.575317 65.9998 0.575317C65.9998 0.575317 53.0531 53.1941 52.9564 53.9418C52.7632 54.6895 55.7584 70.2977 56.4346 76.2792C57.1109 82.3542 57.594 84.8776 57.594 84.8776C57.594 84.8776 51.8937 88.803 45.6135 89.0834C39.3333 89.3638 24.261 91.0461 24.261 91.0461Z" fill="#FFE37E"/>
</g>
<defs>
<clipPath id="clip0_1_89">
<rect width="66.8125" height="113.974" fill="white" transform="translate(0 0.575317)"/>
</clipPath>
</defs>
</svg>
