<svg width="21" height="115" viewBox="0 0 21 115" fill="none" xmlns="http://www.w3.org/2000/svg">
<g clip-path="url(#clip0_1_133)">
<path d="M20.3714 28.7774V18.1978C19.6157 16.3842 18.5578 14.5706 17.4998 12.7569C15.6862 9.58302 14.7794 6.86256 11.001 3.99097C7.97824 2.47961 4.80438 1.27052 1.32825 1.11938C1.02597 1.72393 0.874836 2.63075 0.572564 3.83984C-0.636527 8.22279 0.421427 27.266 0.572564 31.3467C0.7237 35.4274 4.19984 47.216 5.10665 51.599C5.86233 55.9819 6.46688 58.2489 6.31574 61.5739C6.01347 64.8989 4.80438 64.4455 5.10665 70.6421C5.25779 76.6876 10.3964 97.2421 10.3964 98.3001C10.5476 99.2069 10.5476 103.741 10.2453 104.648C9.94302 105.555 6.61802 110.089 6.16461 110.845C5.7112 111.449 6.01347 112.356 7.07142 112.81C8.12938 113.263 9.94302 114.019 11.1521 114.019C12.3612 114.019 13.7214 113.414 13.7214 113.414C13.7214 113.414 15.0816 115.379 16.593 114.17C18.1044 112.961 17.4998 107.52 17.4998 107.52C17.4998 107.52 17.9532 104.648 18.5578 102.381C19.0112 100.114 17.1976 95.1262 17.651 84.6978C18.1044 74.2694 16.7442 65.5035 16.7442 65.5035C16.7442 65.5035 17.3487 63.2364 18.4066 58.7024C19.3135 54.0171 20.3714 28.7774 20.3714 28.7774Z" fill="#FFE37F"/>
<path d="M10.5482 100.114C10.5482 101.777 10.5482 104.044 10.397 104.648C10.0947 105.555 6.76975 110.089 6.31634 110.845C5.86293 111.449 6.1652 112.356 7.22316 112.81C8.28111 113.263 10.0947 114.019 11.3038 114.019C12.5129 114.17 13.8732 113.414 13.8732 113.414C13.8732 113.414 15.2334 115.379 16.7447 114.17C18.2561 112.961 17.6516 107.52 17.6516 107.52C17.6516 107.52 18.105 104.648 18.7095 102.381C18.8607 101.777 18.8607 101.172 18.7095 100.265H10.5482V100.114Z" fill="black"/>
</g>
<defs>
<clipPath id="clip0_1_133">
<rect width="21" height="114" fill="white" transform="translate(0 0.5625)"/>
</clipPath>
</defs>
</svg>
