<svg width="186" height="72" viewBox="0 0 186 72" fill="none" xmlns="http://www.w3.org/2000/svg">
<g clip-path="url(#clip0_1_5)">
<path d="M9.42591 63.0712V63.7879H6.83128V69.6757H5.99664V63.0712H9.42591ZM6.65438 65.7611H8.15581C8.56405 65.7611 8.9088 65.8427 9.19003 66.006C9.47428 66.1663 9.689 66.3916 9.83415 66.6819C9.98232 66.9722 10.0564 67.3124 10.0564 67.7025C10.0564 67.9928 10.0141 68.2589 9.92941 68.5009C9.84776 68.7397 9.72528 68.9484 9.56199 69.1268C9.40171 69.3022 9.20364 69.4383 8.96777 69.5351C8.73189 69.6288 8.46124 69.6757 8.15581 69.6757H5.99664V63.0712H6.83128V68.9635H8.15581C8.40983 68.9635 8.61395 68.9045 8.76817 68.7867C8.92543 68.6657 9.04034 68.5084 9.11292 68.3148C9.1855 68.1214 9.22179 67.9142 9.22179 67.6935C9.22179 67.4727 9.1855 67.2701 9.11292 67.0856C9.04034 66.9012 8.92543 66.7545 8.76817 66.6456C8.61395 66.5337 8.40983 66.4778 8.15581 66.4778H6.65438V65.7611ZM18.3583 63.0712V63.7879H15.8907V63.0712H18.3583ZM19.0932 63.0712V69.6757H18.2585V63.0712H19.0932ZM15.6095 63.0712H16.4395L16.3217 66.3054C16.3064 66.7711 16.2778 67.1869 16.2354 67.5528C16.1931 67.9157 16.1326 68.2317 16.054 68.5009C15.9754 68.7669 15.8725 68.9878 15.7456 69.1631C15.6185 69.3354 15.4628 69.464 15.2783 69.5486C15.0969 69.6333 14.8807 69.6757 14.6296 69.6757H14.4119V68.9635L14.5708 68.9499C14.7097 68.9378 14.8292 68.9 14.929 68.8365C15.0319 68.77 15.1165 68.6702 15.1831 68.5371C15.2526 68.404 15.3086 68.2317 15.3509 68.02C15.3963 67.8083 15.431 67.5498 15.4553 67.2443C15.4794 66.9359 15.4975 66.576 15.5096 66.1648L15.6095 63.0712ZM26.506 63.6563L24.7006 69.6757H23.8478L25.9752 63.0712H26.5105L26.506 63.6563ZM27.9666 69.6757L26.1612 63.6563L26.1522 63.0712H26.6919L28.8194 69.6757H27.9666ZM27.9666 67.2307V67.9474H24.7823V67.2307H27.9666ZM36.9171 63.0712V63.7879H34.3225V69.6757H33.4879V63.0712H36.9171ZM45.6817 65.8019V66.9495C45.6817 67.4152 45.6303 67.8249 45.5274 68.1787C45.4277 68.5296 45.281 68.8229 45.0874 69.0588C44.894 69.2947 44.6611 69.4715 44.3889 69.5895C44.1167 69.7074 43.8098 69.7664 43.4681 69.7664C43.1385 69.7664 42.8375 69.7074 42.5655 69.5895C42.2933 69.4715 42.0589 69.2947 41.8623 69.0588C41.6657 68.8229 41.513 68.5296 41.4042 68.1787C41.2983 67.8249 41.2454 67.4152 41.2454 66.9495V65.8019C41.2454 65.3362 41.2983 64.928 41.4042 64.5772C41.51 64.2234 41.6612 63.9285 41.8578 63.6927C42.0544 63.4567 42.2887 63.2799 42.5609 63.1619C42.833 63.041 43.134 62.9805 43.4636 62.9805C43.8053 62.9805 44.1122 63.041 44.3844 63.1619C44.6596 63.2799 44.8925 63.4567 45.0829 63.6927C45.2765 63.9285 45.4246 64.2234 45.5274 64.5772C45.6303 64.928 45.6817 65.3362 45.6817 65.8019ZM44.8561 66.9495V65.7928C44.8561 65.43 44.8259 65.1184 44.7654 64.8584C44.7049 64.5953 44.6157 64.3806 44.4977 64.2143C44.3799 64.0479 44.2347 63.9255 44.0623 63.8469C43.89 63.7653 43.6903 63.7244 43.4636 63.7244C43.2488 63.7244 43.0553 63.7653 42.8829 63.8469C42.7136 63.9255 42.5685 64.0479 42.4475 64.2143C42.3265 64.3806 42.2328 64.5953 42.1662 64.8584C42.1027 65.1184 42.071 65.43 42.071 65.7928V66.9495C42.071 67.3154 42.1027 67.63 42.1662 67.893C42.2328 68.1531 42.3265 68.3678 42.4475 68.5371C42.5715 68.7035 42.7197 68.8274 42.892 68.909C43.0644 68.9878 43.2564 69.027 43.4681 69.027C43.6949 69.027 43.8945 68.9878 44.0668 68.909C44.2423 68.8274 44.3874 68.7035 44.5023 68.5371C44.6203 68.3678 44.7079 68.1531 44.7654 67.893C44.8259 67.63 44.8561 67.3154 44.8561 66.9495ZM54.9271 68.9635V69.6757H50.7857V68.9635H54.9271ZM50.9127 68.9635V71.2996H50.0826L50.078 68.9635H50.9127ZM55.6529 68.9635L55.6438 71.295H54.8182V68.9635H55.6529ZM54.1469 63.0712V63.7879H51.7518V63.0712H54.1469ZM54.8772 63.0712V69.6757H54.0426V63.0712H54.8772ZM51.4661 63.0712H52.3008L52.1828 65.7294C52.1677 66.1285 52.1374 66.4974 52.0921 66.8361C52.0467 67.1718 51.9877 67.4788 51.9151 67.757C51.8456 68.0351 51.7654 68.2846 51.6747 68.5054C51.584 68.7231 51.4857 68.9121 51.3799 69.0724C51.274 69.2297 51.1622 69.3597 51.0442 69.4625C50.9263 69.5622 50.8053 69.6333 50.6813 69.6757H50.3321V68.9635H50.5634C50.63 68.8789 50.7026 68.7563 50.7812 68.5961C50.8628 68.4358 50.9414 68.2287 51.017 67.9747C51.0956 67.7176 51.1637 67.4047 51.2212 67.0357C51.2817 66.6668 51.3224 66.2314 51.3436 65.7294L51.4661 63.0712ZM61.2558 63.0712V69.6757H60.4211V63.0712H61.2558ZM67.2942 68.1606L69.8661 63.0712H70.7008V69.6757H69.8661V64.5817L67.2942 69.6757H66.4641V63.0712H67.2942V68.1606ZM69.2719 61.4336H69.9523C69.9523 61.6696 69.8979 61.8798 69.789 62.0642C69.6802 62.2457 69.5245 62.3878 69.3218 62.4906C69.1192 62.5933 68.8788 62.6448 68.6006 62.6448C68.1802 62.6448 67.8475 62.533 67.6026 62.3091C67.3608 62.0823 67.2398 61.7905 67.2398 61.4336H67.9201C67.9201 61.6121 67.9716 61.7693 68.0744 61.9054C68.1772 62.0415 68.3526 62.1096 68.6006 62.1096C68.8425 62.1096 69.0149 62.0415 69.1177 61.9054C69.2205 61.7693 69.2719 61.6121 69.2719 61.4336ZM79.4835 65.9107V66.6229H76.6212V65.9107H79.4835ZM76.7347 63.0712V69.6757H75.9V63.0712H76.7347ZM80.2229 63.0712V69.6757H79.3882V63.0712H80.2229ZM86.2477 68.1606L88.8196 63.0712H89.6543V69.6757H88.8196V64.5817L86.2477 69.6757H85.4175V63.0712H86.2477V68.1606ZM95.7244 68.1606L98.2963 63.0712H99.131V69.6757H98.2963V64.5817L95.7244 69.6757H94.8943V63.0712H95.7244V68.1606ZM97.7021 61.4336H98.3826C98.3826 61.6696 98.3281 61.8798 98.2192 62.0642C98.1104 62.2457 97.9546 62.3878 97.752 62.4906C97.5494 62.5933 97.309 62.6448 97.0308 62.6448C96.6104 62.6448 96.2778 62.533 96.0328 62.3091C95.7909 62.0823 95.6699 61.7905 95.6699 61.4336H96.3504C96.3504 61.6121 96.4017 61.7693 96.5046 61.9054C96.6074 62.0415 96.7828 62.1096 97.0308 62.1096C97.2727 62.1096 97.4451 62.0415 97.5479 61.9054C97.6506 61.7693 97.7021 61.6121 97.7021 61.4336ZM112.124 63.7289H113.136C113.447 63.7289 113.739 63.7939 114.011 63.924C114.283 64.0509 114.522 64.2324 114.728 64.4683C114.933 64.7042 115.094 64.9854 115.209 65.312C115.324 65.6355 115.381 65.9939 115.381 66.3871C115.381 66.7802 115.324 67.14 115.209 67.4667C115.094 67.7932 114.933 68.076 114.728 68.3148C114.522 68.5507 114.283 68.7337 114.011 68.8638C113.739 68.9908 113.447 69.0542 113.136 69.0542H112.124C111.813 69.0542 111.521 68.9908 111.249 68.8638C110.979 68.7337 110.742 68.5507 110.536 68.3148C110.331 68.079 110.171 67.7993 110.056 67.4757C109.941 67.1491 109.883 66.7892 109.883 66.3961C109.883 66.0029 109.941 65.6446 110.056 65.3211C110.171 64.9945 110.331 64.7133 110.536 64.4773C110.742 64.2385 110.979 64.0541 111.249 63.924C111.521 63.7939 111.813 63.7289 112.124 63.7289ZM112.124 64.4184C111.813 64.4184 111.548 64.5016 111.33 64.6679C111.116 64.8312 110.952 65.061 110.84 65.3573C110.731 65.6538 110.677 65.9999 110.677 66.3961C110.677 66.6955 110.707 66.9662 110.768 67.2081C110.831 67.45 110.924 67.6571 111.044 67.8296C111.168 68.0019 111.32 68.135 111.498 68.2287C111.679 68.3224 111.888 68.3693 112.124 68.3693H113.145C113.456 68.3693 113.718 68.2877 113.929 68.1244C114.144 67.958 114.307 67.7267 114.419 67.4303C114.531 67.131 114.587 66.7832 114.587 66.3871C114.587 66.0907 114.555 65.8216 114.492 65.5797C114.428 65.3377 114.335 65.1305 114.211 64.9582C114.09 64.7859 113.94 64.6528 113.762 64.5591C113.583 64.4652 113.378 64.4184 113.145 64.4184H112.124ZM113.036 62.799V69.9479H112.237V62.799H113.036ZM124.486 65.8019V66.9495C124.486 67.4152 124.434 67.8249 124.332 68.1787C124.232 68.5296 124.086 68.8229 123.892 69.0588C123.698 69.2947 123.465 69.4715 123.193 69.5895C122.921 69.7074 122.614 69.7664 122.272 69.7664C121.942 69.7664 121.641 69.7074 121.369 69.5895C121.098 69.4715 120.863 69.2947 120.666 69.0588C120.47 68.8229 120.317 68.5296 120.208 68.1787C120.103 67.8249 120.049 67.4152 120.049 66.9495V65.8019C120.049 65.3362 120.103 64.928 120.208 64.5772C120.314 64.2234 120.465 63.9285 120.662 63.6927C120.859 63.4567 121.093 63.2799 121.365 63.1619C121.637 63.041 121.938 62.9805 122.267 62.9805C122.61 62.9805 122.916 63.041 123.188 63.1619C123.463 63.2799 123.697 63.4567 123.887 63.6927C124.081 63.9285 124.228 64.2234 124.332 64.5772C124.434 64.928 124.486 65.3362 124.486 65.8019ZM123.661 66.9495V65.7928C123.661 65.43 123.63 65.1184 123.569 64.8584C123.508 64.5953 123.42 64.3806 123.302 64.2143C123.183 64.0479 123.038 63.9255 122.866 63.8469C122.694 63.7653 122.495 63.7244 122.267 63.7244C122.053 63.7244 121.859 63.7653 121.686 63.8469C121.518 63.9255 121.373 64.0479 121.251 64.2143C121.13 64.3806 121.037 64.5953 120.97 64.8584C120.907 65.1184 120.875 65.43 120.875 65.7928V66.9495C120.875 67.3154 120.907 67.63 120.97 67.893C121.037 68.1531 121.13 68.3678 121.251 68.5371C121.375 68.7035 121.524 68.8274 121.696 68.909C121.869 68.9878 122.06 69.027 122.272 69.027C122.499 69.027 122.698 68.9878 122.871 68.909C123.046 68.8274 123.191 68.7035 123.306 68.5371C123.424 68.3678 123.512 68.1531 123.569 67.893C123.63 67.63 123.661 67.3154 123.661 66.9495ZM133.078 65.9107V66.6229H130.216V65.9107H133.078ZM130.33 63.0712V69.6757H129.495V63.0712H130.33ZM133.818 63.0712V69.6757H132.983V63.0712H133.818ZM143.462 68.9635V69.6757H139.321V68.9635H143.462ZM139.447 68.9635V71.2996H138.617L138.613 68.9635H139.447ZM144.188 68.9635L144.178 71.295H143.353V68.9635H144.188ZM142.682 63.0712V63.7879H140.287V63.0712H142.682ZM143.412 63.0712V69.6757H142.577V63.0712H143.412ZM140 63.0712H140.835L140.718 65.7294C140.703 66.1285 140.673 66.4974 140.627 66.8361C140.581 67.1718 140.523 67.4788 140.45 67.757C140.38 68.0351 140.3 68.2846 140.209 68.5054C140.119 68.7231 140.02 68.9121 139.914 69.0724C139.809 69.2297 139.697 69.3597 139.579 69.4625C139.461 69.5622 139.34 69.6333 139.216 69.6757H138.867V68.9635H139.098C139.164 68.8789 139.237 68.7563 139.316 68.5961C139.398 68.4358 139.477 68.2287 139.552 67.9747C139.63 67.7176 139.698 67.4047 139.756 67.0357C139.817 66.6668 139.857 66.2314 139.878 65.7294L140 63.0712Z" fill="#053412"/>
<path d="M8.59311 13.9366L0 22.5297V56.9021H8.59311V22.5297H17.1862V56.9021H25.7793V13.9366H8.59311Z" fill="#053412"/>
<path d="M39.482 13.9366L30.8889 22.5297V56.9021H39.482V48.309H48.0751V56.9021H56.6682V13.9366H39.482ZM48.0751 31.1228V39.7159H39.482V31.1228V22.5297H48.0751V31.1228Z" fill="#053412"/>
<path d="M101.259 13.9366L92.6662 22.5297V56.9021H101.259V48.309H109.852V56.9021H118.446V13.9366H101.259ZM109.852 31.1228V39.7159H101.259V31.1228V22.5297H109.852V31.1228Z" fill="#053412"/>
<path d="M123.555 13.9366V56.9021H132.148V48.309H140.741L149.334 39.7159V13.9366H123.555ZM140.741 31.1228V39.7159H132.148V31.1228V22.5297H140.741V31.1228Z" fill="#053412"/>
<path d="M78.9636 31.1228H70.3705V39.7159H78.9636V31.1228Z" fill="#053412"/>
<path d="M78.9637 39.7159V48.309H70.3705H61.7775V56.9022H70.3705H78.9637H87.5568V48.309V39.7159H78.9637Z" fill="#053412"/>
<path d="M78.9637 13.9366H70.3705H66.4224H61.7775V22.5297H70.3705H78.9637V31.1228H87.5568V22.5297V13.9366H78.9637Z" fill="#053412"/>
<path d="M185.797 0.00185394L165.475 20.4949V29.4086L185.797 8.87196V0.00185394Z" fill="#1077EA"/>
<path d="M185.797 8.95937L165.475 29.4524V38.3225L185.797 17.8294V8.95937Z" fill="#FFDF00"/>
<path d="M145.154 0.00185394L165.475 20.4949V29.4086L145.154 8.87196V0.00185394Z" fill="#1077EA"/>
<path d="M145.154 8.95937L165.475 29.4524V38.3225L145.154 17.8294V8.95937Z" fill="#FFDF00"/>
</g>
<defs>
<clipPath id="clip0_1_5">
<rect width="185.797" height="71.9963" fill="white" transform="translate(0 0.00185394)"/>
</clipPath>
</defs>
</svg>
