<svg width="67" height="115" viewBox="0 0 67 115" fill="none" xmlns="http://www.w3.org/2000/svg">
<g clip-path="url(#clip0_1_102)">
<path d="M19.8202 68.4058C19.8202 68.4058 16.6622 73.4174 13.3128 75.8304C9.96345 78.2436 6.327 79.4501 3.36042 79.4501C0.393823 79.4501 -0.0846598 77.1298 0.0110365 76.6658C0.106733 76.2017 14.1741 60.517 14.1741 60.517L19.8202 68.4058Z" fill="black"/>
<path d="M24.3168 87.8956C24.3168 87.8956 22.1158 102.838 22.3071 106.179C22.4985 109.52 23.264 112.212 24.3168 112.954C25.3694 113.697 27.4748 113.975 27.8574 112.954C28.336 111.933 32.2595 89.1021 32.2595 89.1021C32.2595 89.1021 30.2499 85.761 27.2832 86.8748C24.3168 87.8956 24.3168 87.8956 24.3168 87.8956Z" fill="black"/>
<path d="M34.4616 89.1021C34.4616 89.1021 35.4187 104.23 35.5142 106.457C35.7058 108.685 35.7058 110.541 36.567 111.748C37.5239 112.954 41.8302 113.882 42.3088 111.748C42.7872 109.613 42.3088 88.4525 42.3088 88.4525C42.3088 88.4525 40.2034 85.9466 38.4809 86.5964C36.7584 87.246 34.4616 89.1021 34.4616 89.1021Z" fill="black"/>
<path d="M43.8391 87.9886C43.8391 87.9886 44.8919 101.632 45.0832 104.323C45.2745 107.014 44.8919 108.963 46.0402 109.891C47.0928 110.82 49.4851 112.769 50.825 109.891C52.1647 107.014 50.825 89.659 50.825 89.659C50.825 89.659 51.1121 86.5964 49.2938 86.5035C47.3799 86.3179 43.8391 87.9886 43.8391 87.9886Z" fill="black"/>
<path d="M50.3462 85.0185C50.3462 85.0185 52.8344 95.4132 53.5042 97.5478C54.1741 99.6823 54.7483 99.6825 55.8009 100.146C56.8535 100.61 58.9589 99.0327 58.9589 96.6197C58.9589 94.2067 56.4708 81.77 56.4708 81.77L50.3462 85.0185Z" fill="black"/>
<path d="M24.0314 90.4015L25.4669 69.9836C25.4669 69.9836 22.9788 68.1274 21.4476 68.2202C19.9166 68.3131 19.9166 68.4058 19.9166 68.4058L14.2704 60.517L29.3904 45.5748C29.3904 45.5748 30.4431 0.5625 30.9216 0.5625C31.4 0.5625 65.3722 0.5625 65.3722 0.5625C65.3722 0.5625 52.5489 52.8138 52.4533 53.5564C52.2618 54.2989 55.2285 69.7979 55.8984 75.7377C56.5681 81.7702 57.0466 84.2761 57.0466 84.2761C57.0466 84.2761 51.4005 88.1742 45.1803 88.4525C38.9601 88.7309 24.0314 90.4015 24.0314 90.4015Z" fill="#FFE37E"/>
<path d="M24.0314 90.4016L25.4669 69.9836C25.4669 69.9836 22.9788 68.1273 21.4476 68.2202C19.9166 68.3129 19.9166 68.4058 19.9166 68.4058L14.2704 60.517L29.3904 45.5749C29.3904 45.1107 52.6446 52.8139 52.6446 52.8139C52.6446 52.8139 52.6446 52.8139 52.4531 53.5564C52.2618 54.2989 55.2284 69.798 55.8982 75.7377C56.5681 81.7702 57.0466 84.2761 57.0466 84.2761C57.0466 84.2761 51.4005 88.1742 45.1803 88.4525C38.9601 88.7309 24.0314 90.4016 24.0314 90.4016Z" fill="black"/>
</g>
<defs>
<clipPath id="clip0_1_102">
<rect width="66.5" height="114" fill="white" transform="translate(0 0.5625)"/>
</clipPath>
</defs>
</svg>
