<svg width="30" height="89" viewBox="0 0 30 89" fill="none" xmlns="http://www.w3.org/2000/svg">
<g clip-path="url(#clip0_1_58)">
<path d="M29.7658 46.3415C28.7716 45.4564 27.719 45.4564 27.719 45.4564C27.719 45.4564 29.1225 36.3695 26.3155 31.885C23.5669 27.4005 14.9704 25.9844 14.9704 25.9844C14.9704 25.9844 6.43242 27.4005 3.68388 31.885C0.876862 36.3695 2.28037 45.4564 2.28037 45.4564C2.28037 45.4564 1.28622 45.4564 0.233588 46.3415C-0.760564 47.2266 1.87101 53.5403 2.51429 53.8943C3.15756 54.3074 4.56107 53.8943 4.56107 53.8943C4.56107 53.8943 7.48505 64.7515 15.0289 63.9254C22.5143 64.7515 25.4967 53.8943 25.4967 53.8943C25.4967 53.8943 26.9003 54.3074 27.5435 53.8943C28.1283 53.5403 30.7599 47.2856 29.7658 46.3415Z" fill="#929292"/>
</g>
<defs>
<clipPath id="clip0_1_58">
<rect width="30" height="38" fill="white" transform="translate(0 25.9844)"/>
</clipPath>
</defs>
</svg>
