<svg width="27" height="89" viewBox="0 0 27 89" fill="none" xmlns="http://www.w3.org/2000/svg">
<g clip-path="url(#clip0_1_44)">
<path d="M26.6359 17.1604C26.2141 11.2526 24.9487 5.34485 20.5899 0.984375C20.0275 1.40636 19.3245 1.969 18.9026 2.39099C14.6845 6.61081 17.0748 13.9252 16.653 15.1911C16.2311 16.3164 16.3717 33.6177 16.3717 33.6177C16.3717 33.6177 13.7002 41.776 12.013 48.6684C10.3257 55.5607 8.49784 64.985 8.49784 64.985C8.49784 64.985 7.65421 66.1103 6.81058 66.6729C5.96694 67.3762 0.20212 75.9565 0.0615149 76.2378C-0.0790906 76.5192 -0.0790905 77.7851 1.18636 77.5038C2.45181 77.2225 4.9827 74.6906 4.9827 74.6906C4.9827 74.6906 4.70149 79.4731 4.9827 83.1302C5.26392 86.7874 6.95118 87.9127 7.5136 88.616C8.07602 89.3193 9.48208 88.8973 10.4663 88.3347C11.4506 87.772 12.013 85.9434 12.013 85.9434C12.013 85.9434 12.5754 86.2248 13.419 85.9434C14.2627 85.6621 14.8251 80.317 15.3875 77.0818C15.9499 73.8466 15.3875 67.7982 15.3875 67.7982C15.3875 67.7982 19.1839 59.3586 21.4335 55.2794C23.6832 51.3409 25.2299 39.9474 25.7923 38.5408C25.9329 37.4155 27.7608 25.4594 26.6359 17.1604Z" fill="#929292"/>
</g>
<defs>
<clipPath id="clip0_1_44">
<rect width="27" height="88" fill="white" transform="translate(0 0.984375)"/>
</clipPath>
</defs>
</svg>
