<svg width="16" height="91" viewBox="0 0 16 91" fill="none" xmlns="http://www.w3.org/2000/svg">
<g clip-path="url(#clip0_1_51)">
<path d="M16 22.7073V14.398C15.4065 12.9736 14.5755 11.5491 13.7446 10.1246C12.3202 7.63183 11.6079 5.49514 8.64032 3.23976C6.26622 2.05271 3.77343 1.10308 1.04322 0.984375C0.805813 1.45919 0.687109 2.17142 0.4497 3.12105C-0.499937 6.56349 0.330995 21.5203 0.4497 24.7253C0.568404 27.9303 3.29861 37.1893 4.01084 40.6317C4.60436 44.0742 5.07918 45.8547 4.96047 48.4662C4.72306 51.0777 3.77343 50.7216 4.01084 55.5885C4.12954 60.3367 8.1655 76.4805 8.1655 77.3114C8.2842 78.0237 8.2842 81.5848 8.04679 82.297C7.80938 83.0093 5.19788 86.5704 4.84177 87.1639C4.48566 87.6387 4.72306 88.351 5.554 88.7071C6.38493 89.0632 7.80938 89.6567 8.75902 89.6567C9.70866 89.6567 10.777 89.1819 10.777 89.1819C10.777 89.1819 11.8453 90.7251 13.0324 89.7754C14.2194 88.8258 13.7446 84.5524 13.7446 84.5524C13.7446 84.5524 14.1007 82.297 14.5755 80.5165C14.9317 78.7359 13.5072 74.8186 13.8633 66.628C14.2194 58.4374 13.1511 51.5525 13.1511 51.5525C13.1511 51.5525 13.6259 49.772 14.4568 46.2108C15.1691 42.531 16 22.7073 16 22.7073Z" fill="#929292"/>
</g>
<defs>
<clipPath id="clip0_1_51">
<rect width="16" height="90" fill="white" transform="translate(0 0.984375)"/>
</clipPath>
</defs>
</svg>
