<svg width="38" height="89" viewBox="0 0 38 89" fill="none" xmlns="http://www.w3.org/2000/svg">
<g clip-path="url(#clip0_1_65)">
<path d="M19.0365 64.0573C29.55 64.0573 38.0729 55.5344 38.0729 45.0209C38.0729 34.5073 29.55 25.9844 19.0365 25.9844C8.52292 25.9844 0 34.5073 0 45.0209C0 55.5344 8.52292 64.0573 19.0365 64.0573Z" fill="#929292"/>
<path d="M17.577 48.3759C17.577 47.209 17.7229 46.3337 17.9417 45.6773C18.1605 45.0209 18.5981 44.3644 19.1816 43.7809C19.7651 43.1245 20.2027 42.541 20.4215 42.1034C20.6404 41.6658 20.7133 41.2281 20.7133 40.7905C20.7133 39.4047 20.2757 38.7483 19.4004 38.7483C19.0357 38.7483 18.6711 38.9671 18.4523 39.3318C18.1605 39.6965 18.0876 40.207 18.0146 40.8635H14.5137C14.5137 39.2589 14.9513 38.0189 15.8265 37.1437C16.7018 36.2685 17.8688 35.8308 19.4004 35.8308C20.9321 35.8308 22.0991 36.2685 22.9743 37.0708C23.8496 37.946 24.2143 39.113 24.2143 40.6447C24.2143 41.8846 23.7037 43.1245 22.6826 44.3644L21.6615 45.5314C21.2968 45.8961 21.078 46.3337 20.9321 46.7713C20.7862 47.209 20.7133 47.7924 20.7133 48.4489H17.577V48.3759ZM17.2853 52.0957C17.2853 51.5122 17.4311 51.0746 17.7958 50.7099C18.1605 50.3452 18.5981 50.1994 19.1816 50.1994C19.7651 50.1994 20.2027 50.3452 20.5674 50.7099C20.9321 51.0746 21.078 51.5122 21.078 52.0957C21.078 52.6063 20.9321 53.1168 20.5674 53.4815C20.2027 53.8462 19.7651 53.9921 19.1816 53.9921C18.5981 53.9921 18.1605 53.8462 17.7958 53.4815C17.4311 53.1168 17.2853 52.6792 17.2853 52.0957Z" fill="white"/>
</g>
<defs>
<clipPath id="clip0_1_65">
<rect width="38" height="38" fill="white" transform="translate(0 25.9844)"/>
</clipPath>
</defs>
</svg>
