<svg width="160" height="63" viewBox="0 0 160 63" fill="none" xmlns="http://www.w3.org/2000/svg">
<g clip-path="url(#clip0_1_242)">
<path d="M8.11719 55.2188V55.836H5.88281V60.9063H5.16406V55.2188H8.11719ZM5.73047 57.5352H7.02344C7.375 57.5352 7.67188 57.6055 7.91406 57.7461C8.15885 57.8842 8.34375 58.0782 8.46875 58.3282C8.59635 58.5782 8.66016 58.8711 8.66016 59.2071C8.66016 59.4571 8.6237 59.6862 8.55078 59.8946C8.48047 60.1003 8.375 60.28 8.23438 60.4336C8.09635 60.5847 7.92578 60.7019 7.72266 60.7852C7.51953 60.8659 7.28646 60.9063 7.02344 60.9063H5.16406V55.2188H5.88281V60.293H7.02344C7.24219 60.293 7.41797 60.2422 7.55078 60.1407C7.6862 60.0365 7.78516 59.9011 7.84766 59.7344C7.91016 59.5678 7.94141 59.3894 7.94141 59.1993C7.94141 59.0092 7.91016 58.8347 7.84766 58.6758C7.78516 58.517 7.6862 58.3907 7.55078 58.2969C7.41797 58.2006 7.24219 58.1524 7.02344 58.1524H5.73047V57.5352ZM15.8094 55.2188V55.836H13.6844V55.2188H15.8094ZM16.4422 55.2188V60.9063H15.7234V55.2188H16.4422ZM13.4422 55.2188H14.157L14.0555 58.004C14.0424 58.405 14.0177 58.7631 13.9812 59.0782C13.9448 59.3907 13.8927 59.6628 13.825 59.8946C13.7573 60.1237 13.6687 60.3139 13.5594 60.4649C13.45 60.6133 13.3159 60.724 13.157 60.7969C13.0008 60.8698 12.8146 60.9063 12.5984 60.9063H12.4109V60.293L12.5477 60.2813C12.6674 60.2709 12.7703 60.2383 12.8562 60.1836C12.9448 60.1264 13.0177 60.0404 13.075 59.9258C13.1349 59.8112 13.1831 59.6628 13.2195 59.4805C13.2586 59.2982 13.2885 59.0756 13.3094 58.8125C13.3302 58.5469 13.3458 58.237 13.3562 57.8829L13.4422 55.2188ZM22.8258 55.7227L21.2711 60.9063H20.5367L22.3687 55.2188H22.8297L22.8258 55.7227ZM24.0836 60.9063L22.5289 55.7227L22.5211 55.2188H22.9859L24.818 60.9063H24.0836ZM24.0836 58.8008V59.418H21.3414V58.8008H24.0836ZM31.7914 55.2188V55.836H29.557V60.9063H28.8383V55.2188H31.7914ZM39.3391 57.5704V58.5586C39.3391 58.9597 39.2948 59.3125 39.2062 59.6172C39.1203 59.9193 38.994 60.1719 38.8273 60.3751C38.6607 60.5782 38.4602 60.7305 38.2258 60.8321C37.9914 60.9336 37.7271 60.9844 37.4328 60.9844C37.149 60.9844 36.8898 60.9336 36.6555 60.8321C36.4211 60.7305 36.2193 60.5782 36.05 60.3751C35.8807 60.1719 35.7492 59.9193 35.6555 59.6172C35.5643 59.3125 35.5187 58.9597 35.5187 58.5586V57.5704C35.5187 57.1693 35.5643 56.8178 35.6555 56.5157C35.7466 56.211 35.8768 55.9571 36.0461 55.754C36.2154 55.5508 36.4172 55.3985 36.6516 55.2969C36.8859 55.1928 37.1451 55.1407 37.4289 55.1407C37.7232 55.1407 37.9875 55.1928 38.2219 55.2969C38.4589 55.3985 38.6594 55.5508 38.8234 55.754C38.9901 55.9571 39.1177 56.211 39.2062 56.5157C39.2948 56.8178 39.3391 57.1693 39.3391 57.5704ZM38.6281 58.5586V57.5625C38.6281 57.2501 38.6021 56.9818 38.55 56.7579C38.4979 56.5313 38.4211 56.3464 38.3195 56.2032C38.218 56.0599 38.093 55.9545 37.9445 55.8868C37.7961 55.8165 37.6242 55.7813 37.4289 55.7813C37.244 55.7813 37.0773 55.8165 36.9289 55.8868C36.7831 55.9545 36.6581 56.0599 36.5539 56.2032C36.4497 56.3464 36.369 56.5313 36.3117 56.7579C36.257 56.9818 36.2297 57.2501 36.2297 57.5625V58.5586C36.2297 58.8737 36.257 59.1446 36.3117 59.3711C36.369 59.5951 36.4497 59.78 36.5539 59.9258C36.6607 60.0691 36.7883 60.1758 36.9367 60.2461C37.0852 60.3139 37.2505 60.3477 37.4328 60.3477C37.6281 60.3477 37.8 60.3139 37.9484 60.2461C38.0995 60.1758 38.2245 60.0691 38.3234 59.9258C38.425 59.78 38.5005 59.5951 38.55 59.3711C38.6021 59.1446 38.6281 58.8737 38.6281 58.5586ZM47.3008 60.293V60.9063H43.7344V60.293H47.3008ZM43.8438 60.293V62.3047H43.1289L43.125 60.293H43.8438ZM47.9258 60.293L47.918 62.3008H47.207V60.293H47.9258ZM46.6289 55.2188V55.836H44.5664V55.2188H46.6289ZM47.2578 55.2188V60.9063H46.5391V55.2188H47.2578ZM44.3203 55.2188H45.0391L44.9375 57.5079C44.9245 57.8516 44.8984 58.1693 44.8594 58.461C44.8203 58.7501 44.7695 59.0144 44.707 59.254C44.6471 59.4935 44.5781 59.7084 44.5 59.8985C44.4219 60.086 44.3372 60.2487 44.2461 60.3868C44.1549 60.5222 44.0586 60.6342 43.957 60.7227C43.8555 60.8086 43.7513 60.8698 43.6445 60.9063H43.3438V60.293H43.543C43.6003 60.2201 43.6628 60.1146 43.7305 59.9766C43.8008 59.8386 43.8685 59.6602 43.9336 59.4415C44.0013 59.2201 44.0599 58.9506 44.1094 58.6329C44.1615 58.3152 44.1966 57.9402 44.2148 57.5079L44.3203 55.2188ZM52.7508 55.2188V60.9063H52.032V55.2188H52.7508ZM57.9508 59.6016L60.1656 55.2188H60.8844V60.9063H60.1656V56.5196L57.9508 60.9063H57.2359V55.2188H57.9508V59.6016ZM59.6539 53.8086H60.2398C60.2398 54.0118 60.193 54.1928 60.0992 54.3516C60.0055 54.5079 59.8714 54.6303 59.6969 54.7188C59.5224 54.8073 59.3154 54.8516 59.0758 54.8516C58.7138 54.8516 58.4273 54.7553 58.2164 54.5625C58.0081 54.3672 57.9039 54.1159 57.9039 53.8086H58.4898C58.4898 53.9623 58.5341 54.0977 58.6227 54.2149C58.7112 54.3321 58.8622 54.3907 59.0758 54.3907C59.2841 54.3907 59.4326 54.3321 59.5211 54.2149C59.6096 54.0977 59.6539 53.9623 59.6539 53.8086ZM68.4477 57.6641V58.2774H65.9828V57.6641H68.4477ZM66.0805 55.2188V60.9063H65.3617V55.2188H66.0805ZM69.0844 55.2188V60.9063H68.3656V55.2188H69.0844ZM74.2727 59.6016L76.4875 55.2188H77.2063V60.9063H76.4875V56.5196L74.2727 60.9063H73.5578V55.2188H74.2727V59.6016ZM82.4336 59.6016L84.6484 55.2188H85.3672V60.9063H84.6484V56.5196L82.4336 60.9063H81.7188V55.2188H82.4336V59.6016ZM84.1367 53.8086H84.7227C84.7227 54.0118 84.6758 54.1928 84.582 54.3516C84.4883 54.5079 84.3542 54.6303 84.1797 54.7188C84.0052 54.8073 83.7982 54.8516 83.5586 54.8516C83.1966 54.8516 82.9102 54.7553 82.6992 54.5625C82.4909 54.3672 82.3867 54.1159 82.3867 53.8086H82.9727C82.9727 53.9623 83.0169 54.0977 83.1055 54.2149C83.194 54.3321 83.3451 54.3907 83.5586 54.3907C83.7669 54.3907 83.9154 54.3321 84.0039 54.2149C84.0924 54.0977 84.1367 53.9623 84.1367 53.8086ZM96.5563 55.7852H97.4273C97.6956 55.7852 97.9469 55.8412 98.1813 55.9532C98.4156 56.0625 98.6214 56.2188 98.7984 56.4219C98.9755 56.6251 99.1135 56.8672 99.2125 57.1485C99.3115 57.4271 99.3609 57.7357 99.3609 58.0743C99.3609 58.4128 99.3115 58.7227 99.2125 59.004C99.1135 59.2852 98.9755 59.5287 98.7984 59.7344C98.6214 59.9375 98.4156 60.0951 98.1813 60.2071C97.9469 60.3165 97.6956 60.3711 97.4273 60.3711H96.5563C96.288 60.3711 96.0367 60.3165 95.8023 60.2071C95.5706 60.0951 95.3661 59.9375 95.1891 59.7344C95.012 59.5313 94.874 59.2904 94.775 59.0118C94.676 58.7305 94.6266 58.4206 94.6266 58.0821C94.6266 57.7435 94.676 57.4349 94.775 57.1563C94.874 56.8751 95.012 56.6329 95.1891 56.4297C95.3661 56.224 95.5706 56.0652 95.8023 55.9532C96.0367 55.8412 96.288 55.7852 96.5563 55.7852ZM96.5563 56.379C96.288 56.379 96.0602 56.4506 95.8727 56.5938C95.6878 56.7344 95.5471 56.9323 95.4508 57.1875C95.357 57.4428 95.3102 57.7409 95.3102 58.0821C95.3102 58.3399 95.3362 58.573 95.3883 58.7813C95.443 58.9896 95.5224 59.168 95.6266 59.3165C95.7333 59.4649 95.8635 59.5795 96.0172 59.6602C96.1734 59.7409 96.3531 59.7813 96.5563 59.7813H97.4352C97.7034 59.7813 97.9286 59.711 98.1109 59.5704C98.2958 59.4271 98.4365 59.2279 98.5328 58.9727C98.6292 58.7149 98.6773 58.4154 98.6773 58.0743C98.6773 57.8191 98.65 57.5873 98.5953 57.379C98.5406 57.1706 98.4599 56.9922 98.3531 56.8438C98.249 56.6954 98.1201 56.5808 97.9664 56.5001C97.8128 56.4193 97.6357 56.379 97.4352 56.379H96.5563ZM97.3414 54.9844V61.1407H96.6539V54.9844H97.3414ZM107.202 57.5704V58.5586C107.202 58.9597 107.157 59.3125 107.069 59.6172C106.983 59.9193 106.857 60.1719 106.69 60.3751C106.523 60.5782 106.323 60.7305 106.088 60.8321C105.854 60.9336 105.59 60.9844 105.295 60.9844C105.011 60.9844 104.752 60.9336 104.518 60.8321C104.284 60.7305 104.082 60.5782 103.912 60.3751C103.743 60.1719 103.612 59.9193 103.518 59.6172C103.427 59.3125 103.381 58.9597 103.381 58.5586V57.5704C103.381 57.1693 103.427 56.8178 103.518 56.5157C103.609 56.211 103.739 55.9571 103.909 55.754C104.078 55.5508 104.28 55.3985 104.514 55.2969C104.748 55.1928 105.008 55.1407 105.291 55.1407C105.586 55.1407 105.85 55.1928 106.084 55.2969C106.321 55.3985 106.522 55.5508 106.686 55.754C106.853 55.9571 106.98 56.211 107.069 56.5157C107.157 56.8178 107.202 57.1693 107.202 57.5704ZM106.491 58.5586V57.5625C106.491 57.2501 106.465 56.9818 106.412 56.7579C106.36 56.5313 106.284 56.3464 106.182 56.2032C106.08 56.0599 105.955 55.9545 105.807 55.8868C105.659 55.8165 105.487 55.7813 105.291 55.7813C105.107 55.7813 104.94 55.8165 104.791 55.8868C104.646 55.9545 104.521 56.0599 104.416 56.2032C104.312 56.3464 104.232 56.5313 104.174 56.7579C104.12 56.9818 104.092 57.2501 104.092 57.5625V58.5586C104.092 58.8737 104.12 59.1446 104.174 59.3711C104.232 59.5951 104.312 59.78 104.416 59.9258C104.523 60.0691 104.651 60.1758 104.799 60.2461C104.948 60.3139 105.113 60.3477 105.295 60.3477C105.491 60.3477 105.662 60.3139 105.811 60.2461C105.962 60.1758 106.087 60.0691 106.186 59.9258C106.287 59.78 106.363 59.5951 106.412 59.3711C106.465 59.1446 106.491 58.8737 106.491 58.5586ZM114.601 57.6641V58.2774H112.136V57.6641H114.601ZM112.234 55.2188V60.9063H111.515V55.2188H112.234ZM115.238 55.2188V60.9063H114.519V55.2188H115.238ZM123.543 60.293V60.9063H119.977V60.293H123.543ZM120.086 60.293V62.3047H119.371L119.367 60.293H120.086ZM124.168 60.293L124.16 62.3008H123.449V60.293H124.168ZM122.871 55.2188V55.836H120.809V55.2188H122.871ZM123.5 55.2188V60.9063H122.781V55.2188H123.5ZM120.562 55.2188H121.281L121.18 57.5079C121.167 57.8516 121.141 58.1693 121.102 58.461C121.062 58.7501 121.012 59.0144 120.949 59.254C120.889 59.4935 120.82 59.7084 120.742 59.8985C120.664 60.086 120.579 60.2487 120.488 60.3868C120.397 60.5222 120.301 60.6342 120.199 60.7227C120.098 60.8086 119.993 60.8698 119.887 60.9063H119.586V60.293H119.785C119.842 60.2201 119.905 60.1146 119.973 59.9766C120.043 59.8386 120.111 59.6602 120.176 59.4415C120.243 59.2201 120.302 58.9506 120.352 58.6329C120.404 58.3152 120.439 57.9402 120.457 57.5079L120.562 55.2188Z" fill="white"/>
<path d="M7.4 12.9062L0 20.3062V49.9062H7.4V20.3062H14.8V49.9062H22.2V12.9062H7.4Z" fill="white"/>
<path d="M34.0001 12.9062L26.6001 20.3062V49.9062H34.0001V42.5062H41.4001V49.9062H48.8001V12.9062H34.0001ZM41.4001 27.7062V35.1063H34.0001V27.7062V20.3062H41.4001V27.7062Z" fill="white"/>
<path d="M87.2 12.9062L79.8 20.3062V49.9062H87.2V42.5062H94.6V49.9062H102V12.9062H87.2ZM94.6 27.7062V35.1063H87.2V27.7062V20.3062H94.6V27.7062Z" fill="white"/>
<path d="M106.4 12.9062V49.9062H113.8V42.5062H121.2L128.6 35.1063V12.9062H106.4ZM121.2 27.7062V35.1063H113.8V27.7062V20.3062H121.2V27.7062Z" fill="white"/>
<path d="M67.9999 27.7063H60.5999V35.1063H67.9999V27.7063Z" fill="white"/>
<path d="M68 35.1062V42.5062H60.5999H53.2V49.9062H60.5999H68H75.4V42.5062V35.1062H68Z" fill="white"/>
<path d="M68 12.9062H60.5999H57.2H53.2V20.3062H60.5999H68V27.7062H75.4V20.3062V12.9062H68Z" fill="white"/>
<path d="M160 0.90625L142.5 18.5539V26.23L160 8.54479V0.90625Z" fill="#1077EA"/>
<path d="M160 8.62012L142.5 26.2678V33.9063L160 16.2586V8.62012Z" fill="#FFDF00"/>
<path d="M125 0.90625L142.5 18.5539V26.23L125 8.54479V0.90625Z" fill="#1077EA"/>
<path d="M125 8.62012L142.5 26.2678V33.9063L125 16.2586V8.62012Z" fill="#FFDF00"/>
</g>
<defs>
<clipPath id="clip0_1_242">
<rect width="160" height="62" fill="white" transform="translate(0 0.90625)"/>
</clipPath>
</defs>
</svg>
