<svg width="35" height="115" viewBox="0 0 35 115" fill="none" xmlns="http://www.w3.org/2000/svg">
<g clip-path="url(#clip0_1_117)">
<path d="M34.4091 21.4648C33.8641 13.836 32.2294 6.2072 26.5987 0.576416C25.8721 1.12133 24.9639 1.84788 24.4189 2.3928C18.9698 7.84194 22.0576 17.2871 21.5128 18.9219C20.9679 20.3749 21.1495 42.7165 21.1495 42.7165C21.1495 42.7165 17.6983 53.2515 15.5187 62.1517C13.339 71.052 10.9778 83.2218 10.9778 83.2218C10.9778 83.2218 9.88792 84.6748 8.7981 85.4014C7.70826 86.3096 0.261105 97.3896 0.0794666 97.7528C-0.102172 98.116 -0.102171 99.7508 1.53258 99.3876C3.16731 99.0243 6.4368 95.7547 6.4368 95.7547C6.4368 95.7547 6.07353 101.93 6.4368 106.653C6.80008 111.376 8.97973 112.829 9.70629 113.737C10.4328 114.645 12.2492 114.1 13.5207 113.374C14.7922 112.647 15.5187 110.286 15.5187 110.286C15.5187 110.286 16.2453 110.649 17.335 110.286C18.4249 109.923 19.1515 103.02 19.878 98.8426C20.6046 94.665 19.878 86.8545 19.878 86.8545C19.878 86.8545 24.7822 75.9562 27.6885 70.6888C30.5947 65.6029 32.5927 50.8902 33.3193 49.0738C33.5008 47.6207 35.8621 32.1814 34.4091 21.4648Z" fill="black"/>
<path d="M20.9683 42.8981C20.9683 42.8981 19.8784 46.5309 18.4254 51.2535H32.5932C32.7748 50.3452 32.9564 49.6187 32.9564 49.2554C33.5014 47.4391 35.8627 31.9999 34.4095 21.2832C33.8646 13.836 32.2299 6.2072 26.599 0.576416C25.8726 1.12133 24.9643 1.84788 24.4195 2.3928C18.9703 7.84194 22.0582 17.2871 21.5132 18.9219C20.9683 20.5567 20.9683 42.8981 20.9683 42.8981Z" fill="#FFE37F"/>
</g>
<defs>
<clipPath id="clip0_1_117">
<rect width="34.9688" height="113.972" fill="white" transform="translate(0 0.576416)"/>
</clipPath>
</defs>
</svg>
